<svg width="30" height="30" viewBox="0 0 30 30" fill="none" xmlns="http://www.w3.org/2000/svg">
<path fill-rule="evenodd" clip-rule="evenodd" d="M3.08686 7.60243C3.11325 8.93776 2.38658 10.7428 1.44173 11.6858C1.00719 12.1201 0.66247 12.6357 0.427283 13.2033C0.192096 13.7708 0.0710449 14.3791 0.0710449 14.9934C0.0710449 15.6077 0.192096 16.216 0.427283 16.7835C0.66247 17.351 1.00719 17.8667 1.44173 18.3009C2.37426 19.2299 3.06047 20.8414 3.08686 22.1574C3.11149 23.3221 3.5672 24.4797 4.45575 25.3664C5.27533 26.1881 6.37209 26.6743 7.53135 26.7299C8.92311 26.8003 10.7459 27.6096 11.7313 28.5948C12.1655 29.0291 12.6811 29.3735 13.2485 29.6085C13.8159 29.8435 14.4241 29.9645 15.0382 29.9645C15.6524 29.9645 16.2606 29.8435 16.828 29.6085C17.3954 29.3735 17.9109 29.0291 18.3452 28.5948C19.3305 27.6096 21.1534 26.8003 22.5451 26.7299C23.7044 26.6743 24.8012 26.1881 25.6207 25.3664C26.4754 24.5131 26.9655 23.3614 26.9879 22.1539C27.0143 20.8414 27.6917 19.2404 28.6224 18.3115C29.5025 17.4343 29.9981 16.2434 30 15.0009C30.002 13.7583 29.5103 12.5659 28.633 11.6858C27.6899 10.7446 26.9615 8.93776 26.9896 7.60419C27.0029 6.97455 26.8884 6.34875 26.6531 5.76456C26.4179 5.18037 26.0667 4.6499 25.6207 4.20515C25.1585 3.7419 24.604 3.3811 23.9931 3.14619C23.3823 2.91128 22.7289 2.80753 22.0753 2.84167C20.8191 2.905 19.2338 2.29627 18.3452 1.40605C17.9109 0.971545 17.3952 0.626863 16.8277 0.391698C16.2601 0.156532 15.6517 0.0354919 15.0374 0.0354919C14.423 0.0354919 13.8146 0.156532 13.2471 0.391698C12.6795 0.626863 12.1638 0.971545 11.7295 1.40605C10.8427 2.29451 9.25565 2.905 7.99937 2.84167C7.34611 2.80778 6.69303 2.91165 6.08253 3.14656C5.47203 3.38146 4.91777 3.74213 4.45575 4.20515C4.01003 4.64969 3.65895 5.17988 3.42369 5.76375C3.18843 6.34762 3.07385 6.97308 3.08686 7.60243Z" fill="#F42525"/>
<path d="M14.5561 18.3514L13.3151 20.7711C13.1439 21.1049 12.8004 21.3147 12.4253 21.3147H9.73523C8.97814 21.3147 8.49564 20.5061 8.8552 19.8398L11.7002 14.5681L8.73748 9.88361C8.31636 9.21777 8.7948 8.34909 9.58263 8.34909H13.1754C13.5336 8.34909 13.8644 8.54066 14.0427 8.85131L15.2409 10.939L16.5108 8.83273C16.6918 8.53258 17.0167 8.34909 17.3672 8.34909H19.7457C20.5139 8.34909 20.9952 9.17927 20.6136 9.84593L17.9799 14.4463L21.3402 19.7818C21.7596 20.4478 21.281 21.3147 20.494 21.3147H16.7485C16.3806 21.3147 16.0423 21.1127 15.868 20.7887L14.5561 18.3514Z" fill="white"/>
</svg>
