<svg width="31" height="30" viewBox="0 0 31 30" fill="none" xmlns="http://www.w3.org/2000/svg">
<path d="M15.122 30C13.0301 30 11.0642 29.606 9.22439 28.818C7.38455 28.03 5.78415 26.9615 4.42317 25.6125C3.0622 24.2625 1.98501 22.675 1.19161 20.85C0.398212 19.025 0.00100813 17.075 0 15C0 12.925 0.397203 10.975 1.19161 9.15C1.98602 7.325 3.0632 5.7375 4.42317 4.3875C5.78415 3.0375 7.38455 1.969 9.22439 1.182C11.0642 0.395 13.0301 0.001 15.122 0C18.8016 0 22.0216 1.144 24.7819 3.432C27.5421 5.72 29.262 8.5885 29.9415 12.0375H26.8415C26.3626 10.2125 25.4991 8.5815 24.2511 7.1445C23.003 5.7075 21.4722 4.626 19.6585 3.9V4.5C19.6585 5.325 19.3627 6.0315 18.7709 6.6195C18.1791 7.2075 17.4669 7.501 16.6341 7.5H13.6098V10.5C13.6098 10.925 13.4646 11.2815 13.1742 11.5695C12.8839 11.8575 12.525 12.001 12.0976 12H9.07317V15H12.0976V19.5H10.5854L3.32683 12.3C3.25122 12.75 3.18216 13.2 3.11966 13.65C3.05715 14.1 3.0254 14.55 3.02439 15C3.02439 18.275 4.18374 21.0875 6.50244 23.4375C8.82114 25.7875 11.6943 26.975 15.122 27V30ZM28.8829 29.25L24.0439 24.45C23.5146 24.75 22.9476 25 22.3427 25.2C21.7378 25.4 21.0951 25.5 20.4146 25.5C18.5244 25.5 16.9179 24.844 15.5953 23.532C14.2726 22.22 13.6108 20.626 13.6098 18.75C13.6098 16.875 14.2716 15.2815 15.5953 13.9695C16.9189 12.6575 18.5254 12.001 20.4146 12C22.3049 12 23.9118 12.6565 25.2355 13.9695C26.5592 15.2825 27.2205 16.876 27.2195 18.75C27.2195 19.425 27.1187 20.0625 26.9171 20.6625C26.7154 21.2625 26.4634 21.825 26.161 22.35L31 27.15L28.8829 29.25ZM20.4146 22.5C21.4732 22.5 22.3679 22.1375 23.0988 21.4125C23.8297 20.6875 24.1951 19.8 24.1951 18.75C24.1951 17.7 23.8297 16.8125 23.0988 16.0875C22.3679 15.3625 21.4732 15 20.4146 15C19.3561 15 18.4614 15.3625 17.7305 16.0875C16.9996 16.8125 16.6341 17.7 16.6341 18.75C16.6341 19.8 16.9996 20.6875 17.7305 21.4125C18.4614 22.1375 19.3561 22.5 20.4146 22.5Z" fill="white"/>
</svg>
