<svg width="35" height="29" viewBox="0 0 35 29" fill="none" xmlns="http://www.w3.org/2000/svg">
<path d="M35 14.4322C35 13.7111 34.701 13.0196 34.1688 12.5097C33.6365 11.9999 32.9147 11.7134 32.162 11.7134L9.68468 11.7134L17.1393 4.57219C17.6406 4.0568 17.9135 3.37514 17.9005 2.67079C17.8876 1.96645 17.5897 1.29443 17.0697 0.796309C16.5497 0.298187 15.8482 0.0128539 15.113 0.000426645C14.3777 -0.0120006 13.6662 0.249448 13.1282 0.729688L0.829994 12.5109C0.298522 13.0207 -6.68272e-07 13.7117 -6.36779e-07 14.4322C-6.05287e-07 15.1527 0.298522 15.8437 0.829994 16.3534L13.1282 28.1347C13.388 28.4018 13.7013 28.616 14.0494 28.7646C14.3976 28.9132 14.7734 28.9931 15.1544 28.9996C15.5355 29.006 15.914 28.9389 16.2674 28.8021C16.6208 28.6654 16.9418 28.4619 17.2113 28.2037C17.4808 27.9455 17.6933 27.638 17.836 27.2995C17.9787 26.9609 18.0488 26.5983 18.0421 26.2333C18.0354 25.8682 17.952 25.5082 17.7969 25.1747C17.6417 24.8412 17.4181 24.5411 17.1393 24.2922L9.68468 17.1509L32.162 17.1509C33.7286 17.1509 35 15.9329 35 14.4322Z" fill="white"/>
</svg>
