<svg width="40" height="32" viewBox="0 0 40 32" fill="none" xmlns="http://www.w3.org/2000/svg">
<path d="M38.0645 28.16H37.4194V9.6C37.4194 9.09078 37.2154 8.60242 36.8525 8.24235C36.4895 7.88228 35.9972 7.68 35.4839 7.68H23.871C23.3576 7.68 22.8653 7.88228 22.5024 8.24235C22.1394 8.60242 21.9355 9.09078 21.9355 9.6V15.36H18.0645V1.92C18.0645 1.41078 17.8606 0.922425 17.4976 0.562355C17.1347 0.202285 16.6424 0 16.129 0H4.51613C4.00281 0 3.51051 0.202285 3.14754 0.562355C2.78456 0.922425 2.58065 1.41078 2.58065 1.92V28.16H1.93548C1.42216 28.16 0.929864 28.3623 0.56689 28.7224C0.203916 29.0824 0 29.5708 0 30.08C0 30.5892 0.203916 31.0776 0.56689 31.4376C0.929864 31.7977 1.42216 32 1.93548 32H38.0645C38.5778 32 39.0701 31.7977 39.4331 31.4376C39.7961 31.0776 40 30.5892 40 30.08C40 29.5708 39.7961 29.0824 39.4331 28.7224C39.0701 28.3623 38.5778 28.16 38.0645 28.16ZM25.8065 11.52H33.5484V28.16H25.8065V11.52ZM21.9355 19.2V28.16H18.0645V19.2H21.9355ZM6.45161 3.84H14.1935V28.16H6.45161V3.84ZM12.2581 7.68V8.96C12.2581 9.46922 12.0541 9.95758 11.6912 10.3176C11.3282 10.6777 10.8359 10.88 10.3226 10.88C9.80926 10.88 9.31696 10.6777 8.95399 10.3176C8.59101 9.95758 8.3871 9.46922 8.3871 8.96V7.68C8.3871 7.17078 8.59101 6.68242 8.95399 6.32235C9.31696 5.96228 9.80926 5.76 10.3226 5.76C10.8359 5.76 11.3282 5.96228 11.6912 6.32235C12.0541 6.68242 12.2581 7.17078 12.2581 7.68ZM12.2581 15.36V16.64C12.2581 17.1492 12.0541 17.6376 11.6912 17.9976C11.3282 18.3577 10.8359 18.56 10.3226 18.56C9.80926 18.56 9.31696 18.3577 8.95399 17.9976C8.59101 17.6376 8.3871 17.1492 8.3871 16.64V15.36C8.3871 14.8508 8.59101 14.3624 8.95399 14.0024C9.31696 13.6423 9.80926 13.44 10.3226 13.44C10.8359 13.44 11.3282 13.6423 11.6912 14.0024C12.0541 14.3624 12.2581 14.8508 12.2581 15.36ZM12.2581 23.04V24.32C12.2581 24.8292 12.0541 25.3176 11.6912 25.6776C11.3282 26.0377 10.8359 26.24 10.3226 26.24C9.80926 26.24 9.31696 26.0377 8.95399 25.6776C8.59101 25.3176 8.3871 24.8292 8.3871 24.32V23.04C8.3871 22.5308 8.59101 22.0424 8.95399 21.6824C9.31696 21.3223 9.80926 21.12 10.3226 21.12C10.8359 21.12 11.3282 21.3223 11.6912 21.6824C12.0541 22.0424 12.2581 22.5308 12.2581 23.04ZM27.7419 24.32V23.04C27.7419 22.5308 27.9459 22.0424 28.3088 21.6824C28.6718 21.3223 29.1641 21.12 29.6774 21.12C30.1907 21.12 30.683 21.3223 31.046 21.6824C31.409 22.0424 31.6129 22.5308 31.6129 23.04V24.32C31.6129 24.8292 31.409 25.3176 31.046 25.6776C30.683 26.0377 30.1907 26.24 29.6774 26.24C29.1641 26.24 28.6718 26.0377 28.3088 25.6776C27.9459 25.3176 27.7419 24.8292 27.7419 24.32ZM27.7419 16.64V15.36C27.7419 14.8508 27.9459 14.3624 28.3088 14.0024C28.6718 13.6423 29.1641 13.44 29.6774 13.44C30.1907 13.44 30.683 13.6423 31.046 14.0024C31.409 14.3624 31.6129 14.8508 31.6129 15.36V16.64C31.6129 17.1492 31.409 17.6376 31.046 17.9976C30.683 18.3577 30.1907 18.56 29.6774 18.56C29.1641 18.56 28.6718 18.3577 28.3088 17.9976C27.9459 17.6376 27.7419 17.1492 27.7419 16.64Z" fill="#CAF425"/>
</svg>
