<svg width="32" height="32" viewBox="0 0 32 32" fill="none" xmlns="http://www.w3.org/2000/svg">
<path d="M28.8 19.2H32V22.4H28.8C26.592 22.4 24.416 21.84 22.4 20.8C18.4 22.88 13.6 22.88 9.6 20.8C7.584 21.84 5.392 22.4 3.2 22.4H0V19.2H3.2C5.424 19.2 7.648 18.448 9.6 17.072C13.504 19.808 18.496 19.808 22.4 17.072C24.352 18.448 26.576 19.2 28.8 19.2ZM28.8 28.8H32V32H28.8C26.592 32 24.416 31.44 22.4 30.4C18.4 32.48 13.6 32.48 9.6 30.4C7.584 31.44 5.392 32 3.2 32H0V28.8H3.2C5.424 28.8 7.648 28.048 9.6 26.672C13.504 29.408 18.496 29.408 22.4 26.672C24.352 28.048 26.576 28.8 28.8 28.8ZM8 0L1.6 6.4H6.4V14.4H9.6V6.4H14.4M24 0L17.6 6.4H22.4V14.4H25.6V6.4H30.4" fill="#CAF425"/>
</svg>
