<svg width="30" height="30" viewBox="0 0 30 30" fill="none" xmlns="http://www.w3.org/2000/svg">
<path fill-rule="evenodd" clip-rule="evenodd" d="M3.01581 7.56693C3.04221 8.90227 2.31553 10.7073 1.37068 11.6504C0.936139 12.0846 0.591426 12.6002 0.356239 13.1678C0.121052 13.7353 0 14.3436 0 14.9579C0 15.5722 0.121052 16.1805 0.356239 16.748C0.591426 17.3156 0.936139 17.8312 1.37068 18.2654C2.30322 19.1944 2.98942 20.8059 3.01581 22.1219C3.04045 23.2866 3.49616 24.4442 4.3847 25.3309C5.20428 26.1526 6.30105 26.6388 7.4603 26.6944C8.85206 26.7648 10.6749 27.5741 11.6602 28.5593C12.0945 28.9936 12.6101 29.338 13.1775 29.573C13.7449 29.808 14.353 29.929 14.9672 29.929C15.5814 29.929 16.1895 29.808 16.7569 29.573C17.3243 29.338 17.8399 28.9936 18.2742 28.5593C19.2595 27.5741 21.0823 26.7648 22.4741 26.6944C23.6333 26.6388 24.7301 26.1526 25.5497 25.3309C26.4043 24.4776 26.8944 23.3259 26.9168 22.1184C26.9432 20.8059 27.6206 19.2049 28.5514 18.276C29.4315 17.3988 29.927 16.2079 29.929 14.9654C29.931 13.7228 29.4392 12.5304 28.5619 11.6504C27.6189 10.7091 26.8904 8.90227 26.9186 7.56869C26.9318 6.93906 26.8174 6.31326 26.5821 5.72907C26.3468 5.14488 25.9956 4.6144 25.5497 4.16966C25.0875 3.70641 24.5329 3.34561 23.9221 3.1107C23.3113 2.87579 22.6579 2.77203 22.0043 2.80617C20.748 2.86951 19.1627 2.26078 18.2742 1.37056C17.8399 0.936053 17.3242 0.591371 16.7566 0.356206C16.189 0.12104 15.5807 0 14.9663 0C14.3519 0 13.7436 0.12104 13.176 0.356206C12.6084 0.591371 12.0928 0.936053 11.6585 1.37056C10.7717 2.25902 9.18461 2.86951 7.92833 2.80617C7.27507 2.77228 6.62198 2.87616 6.01149 3.11106C5.40099 3.34597 4.84673 3.70664 4.3847 4.16966C3.93898 4.6142 3.58791 5.14439 3.35264 5.72826C3.11738 6.31213 3.0028 6.93759 3.01581 7.56693ZM20.3081 9.02015C20.5102 9.13228 20.6883 9.28312 20.8321 9.46407C20.9758 9.64501 21.0826 9.85251 21.1461 10.0747C21.2097 10.2969 21.2288 10.5294 21.2025 10.759C21.1761 10.9886 21.1048 11.2108 20.9926 11.4128L16.1223 20.1778C15.9952 20.4159 15.8159 20.6222 15.598 20.7813C15.2799 21.011 14.8943 21.128 14.5023 21.1136C14.1102 21.0993 13.7342 20.9544 13.4338 20.7021L8.57934 16.8193C8.39888 16.6749 8.24864 16.4964 8.13718 16.2939C8.02572 16.0914 7.95524 15.869 7.92975 15.6393C7.90426 15.4096 7.92427 15.1771 7.98863 14.9552C8.05299 14.7332 8.16045 14.5261 8.30486 14.3457C8.44927 14.1652 8.62782 14.015 8.83029 13.9035C9.03277 13.7921 9.25522 13.7216 9.48494 13.6961C9.71466 13.6706 9.94715 13.6906 10.1691 13.755C10.3911 13.8194 10.5983 13.9268 10.7787 14.0712L14.0391 16.6803L17.9152 9.70277C18.0275 9.50083 18.1785 9.32299 18.3595 9.1794C18.5405 9.03581 18.7481 8.92928 18.9703 8.86589C19.1925 8.8025 19.425 8.7835 19.6546 8.80996C19.8841 8.83643 20.1062 8.90785 20.3081 9.02015Z" fill="#B9E50F"/>
</svg>
