<svg width="31" height="30" viewBox="0 0 31 30" fill="none" xmlns="http://www.w3.org/2000/svg">
<path fill-rule="evenodd" clip-rule="evenodd" d="M3.76581 7.60243C3.79221 8.93776 3.06553 10.7428 2.12068 11.6858C1.68614 12.1201 1.34143 12.6357 1.10624 13.2033C0.871052 13.7708 0.75 14.3791 0.75 14.9934C0.75 15.6077 0.871052 16.216 1.10624 16.7835C1.34143 17.351 1.68614 17.8667 2.12068 18.3009C3.05322 19.2299 3.73942 20.8414 3.76581 22.1574C3.79045 23.3221 4.24616 24.4797 5.1347 25.3664C5.95428 26.1881 7.05105 26.6743 8.2103 26.7299C9.60206 26.8003 11.4249 27.6096 12.4102 28.5948C12.8445 29.0291 13.3601 29.3735 13.9275 29.6085C14.4949 29.8435 15.103 29.9645 15.7172 29.9645C16.3314 29.9645 16.9395 29.8435 17.5069 29.6085C18.0743 29.3735 18.5899 29.0291 19.0242 28.5948C20.0095 27.6096 21.8323 26.8003 23.2241 26.7299C24.3833 26.6743 25.4801 26.1881 26.2997 25.3664C27.1543 24.5131 27.6444 23.3614 27.6668 22.1539C27.6932 20.8414 28.3706 19.2404 29.3014 18.3115C30.1815 17.4343 30.677 16.2434 30.679 15.0009C30.681 13.7583 30.1892 12.5659 29.3119 11.6858C28.3689 10.7446 27.6404 8.93776 27.6686 7.60419C27.6818 6.97455 27.5674 6.34875 27.3321 5.76456C27.0968 5.18037 26.7456 4.6499 26.2997 4.20515C25.8375 3.7419 25.2829 3.3811 24.6721 3.14619C24.0613 2.91128 23.4079 2.80753 22.7543 2.84167C21.498 2.905 19.9127 2.29627 19.0242 1.40605C18.5899 0.971545 18.0742 0.626863 17.5066 0.391698C16.939 0.156532 16.3307 0.0354919 15.7163 0.0354919C15.1019 0.0354919 14.4936 0.156532 13.926 0.391698C13.3584 0.626863 12.8428 0.971545 12.4085 1.40605C11.5217 2.29451 9.93461 2.905 8.67833 2.84167C8.02507 2.80778 7.37198 2.91165 6.76149 3.14656C6.15099 3.38146 5.59673 3.74213 5.1347 4.20515C4.68898 4.64969 4.33791 5.17988 4.10264 5.76375C3.86738 6.34762 3.7528 6.97308 3.76581 7.60243ZM21.0581 9.05564C21.2602 9.16777 21.4383 9.31861 21.5821 9.49956C21.7258 9.6805 21.8326 9.888 21.8961 10.1102C21.9597 10.3324 21.9788 10.5649 21.9525 10.7945C21.9261 11.0241 21.8548 11.2463 21.7426 11.4483L16.8723 20.2133C16.7452 20.4514 16.5659 20.6577 16.348 20.8168C16.0299 21.0465 15.6443 21.1634 15.2523 21.1491C14.8602 21.1348 14.4842 20.9899 14.1838 20.7376L9.32934 16.8548C9.14888 16.7104 8.99864 16.5318 8.88718 16.3294C8.77572 16.1269 8.70524 15.9045 8.67975 15.6748C8.65426 15.4451 8.67427 15.2126 8.73863 14.9907C8.80299 14.7687 8.91045 14.5616 9.05486 14.3811C9.19927 14.2007 9.37782 14.0505 9.58029 13.939C9.78277 13.8276 10.0052 13.7571 10.2349 13.7316C10.4647 13.7061 10.6971 13.7261 10.9191 13.7905C11.1411 13.8548 11.3483 13.9623 11.5287 14.1067L14.7891 16.7158L18.6652 9.73826C18.7775 9.53632 18.9285 9.35848 19.1095 9.21489C19.2905 9.0713 19.4981 8.96477 19.7203 8.90138C19.9425 8.83799 20.175 8.81899 20.4046 8.84546C20.6341 8.87192 20.8562 8.94334 21.0581 9.05564Z" fill="#CAF425"/>
</svg>
