<svg width="331" height="197" viewBox="0 0 331 197" fill="none" xmlns="http://www.w3.org/2000/svg">
<path d="M215.394 141.853C193.952 144.99 147.409 141.417 126.818 139.238C140.872 185.65 131.72 192.841 178.133 196.763C215.263 199.901 218.444 161.464 215.394 141.853Z" fill="#C8C3CA"/>
<path fill-rule="evenodd" clip-rule="evenodd" d="M156.888 193.848C159.781 194.194 162.954 194.508 166.441 194.802C201.783 197.789 206.367 163.107 204.096 142.848C208.349 142.653 212.2 142.331 215.468 141.853C218.519 161.464 215.337 199.901 178.207 196.763C169.2 196.002 162.285 195.118 156.888 193.848Z" fill="#B1ABB4"/>
<rect x="148.39" y="155.58" width="11.7666" height="20.9184" rx="5.88329" fill="#8C818F"/>
<rect x="166.693" y="155.58" width="11.7666" height="20.9184" rx="5.88329" fill="#8C818F"/>
<rect x="184.343" y="155.58" width="11.7666" height="20.9184" rx="5.88329" fill="#8C818F"/>
<path d="M0.288692 34.6904C0.811651 45.1496 9.22258 56.4803 13.3627 60.8383C21.9915 42.0118 42.2344 29.8966 51.2772 26.1923C33.9541 6.5813 13.3627 3.96652 8.13303 3.31282C6.72305 3.13657 5.47148 3.49986 4.39832 4.14244C0.638784 6.39355 0.155412 11.426 0.0652441 15.8071C-0.0414197 20.9896 -0.0492775 27.931 0.288692 34.6904Z" fill="#56988C"/>
<path d="M0.287005 110.455C0.80702 100.004 9.17059 88.6818 13.2874 84.3272C21.8677 103.139 41.9965 115.245 50.9884 118.947C33.7629 138.542 13.2874 141.155 8.08718 141.808C6.68096 141.985 5.43318 141.619 4.36395 140.974C0.629188 138.718 0.154993 133.71 0.0653065 129.348C-0.041223 124.167 -0.0495794 117.22 0.287005 110.455Z" fill="#56988C"/>
<path d="M330.118 67.8324C334.367 124.051 259.192 148.891 172.903 146.276C86.0761 146.276 7.19061 115.732 7.19061 72.4083C9.15171 33.1863 86.0761 0.174547 172.903 0.174547C259.845 -2.44025 330.118 24.509 330.118 67.8324Z" fill="#A9E8D1"/>
<path fill-rule="evenodd" clip-rule="evenodd" d="M172.45 146.276C258.739 148.891 333.914 124.05 329.665 67.8323C329.665 24.5089 259.392 -2.44038 172.45 0.174415C172.056 0.174415 171.663 0.175095 171.269 0.176451C247.273 2.53757 305.478 28.4038 305.478 67.8323C309.324 118.72 248.093 143.899 172.449 146.276C172.449 146.276 172.45 146.276 172.45 146.276Z" fill="#77D1B3"/>
<path d="M330.118 72.5058C330.118 93.7509 272.068 110.093 165.724 107.034C52.114 103.765 7.19061 87.4485 7.19061 73.3684C7.19061 59.2883 82.3037 39.3761 165.724 39.3761C284.869 37.2059 330.118 58.4257 330.118 72.5058Z" fill="#67B59F"/>
<path d="M309.284 73.4232C309.284 94.6683 249.145 107.089 165.724 107.089C52.114 103.82 7.19061 87.5033 7.19061 73.4232C7.19061 59.3431 82.3037 39.4308 165.724 39.4308C265.012 36.816 309.284 59.3431 309.284 73.4232Z" fill="#77D1B3"/>
<path d="M87.9534 72.9043L87.8334 79.6243H88.8734C90.3668 76.451 91.7401 73.0643 92.9934 69.4643C94.2468 65.8377 94.8734 63.0777 94.8734 61.1843C94.8734 60.4377 94.7268 59.7177 94.4334 59.0243C96.4601 57.6377 98.3268 56.9443 100.033 56.9443C102.7 56.9443 104.033 58.451 104.033 61.4643C104.033 62.9577 103.62 64.851 102.793 67.1443C101.993 69.411 100.793 72.2643 99.1934 75.7043C97.5934 79.1177 96.7401 80.9577 96.6334 81.2243L97.1934 83.4243C95.9668 84.411 94.3934 85.251 92.4734 85.9443C90.5534 86.611 88.4334 86.9443 86.1134 86.9443C83.7934 86.9443 82.0734 86.571 80.9534 85.8243C79.8334 85.0777 79.2734 83.8243 79.2734 82.0643L79.3134 74.7043C79.3134 68.5977 78.5668 64.291 77.0734 61.7843C76.3801 60.6377 75.5268 59.7177 74.5134 59.0243C76.3268 57.6377 78.4068 56.9443 80.7534 56.9443C82.8868 56.9443 84.4734 57.7843 85.5134 59.4643C86.5534 61.1177 87.2334 63.1043 87.5534 65.4243C87.8201 67.531 87.9534 70.0243 87.9534 72.9043ZM125.135 64.9843C126.628 64.9843 127.908 65.5843 128.975 66.7843C130.068 67.9843 130.615 69.731 130.615 72.0243C130.615 74.291 130.215 76.3977 129.415 78.3443C128.615 80.2643 127.562 81.8377 126.255 83.0643C124.948 84.291 123.468 85.251 121.815 85.9443C120.162 86.611 118.468 86.9443 116.735 86.9443C113.242 86.9443 110.482 85.9843 108.455 84.0643C106.428 82.1443 105.415 79.5977 105.415 76.4243C105.415 72.131 106.788 68.651 109.535 65.9843C112.308 63.291 115.828 61.9443 120.095 61.9443C121.055 61.9443 122.015 62.051 122.975 62.2643C123.268 63.1443 123.428 64.1443 123.455 65.2643C124.015 65.0777 124.575 64.9843 125.135 64.9843ZM120.215 70.5443C120.215 69.7977 120.388 68.9577 120.735 68.0243C121.108 67.091 121.695 66.3443 122.495 65.7843C118.975 66.531 116.548 67.9577 115.215 70.0643C114.068 71.8777 113.495 73.7443 113.495 75.6643C113.495 77.5843 113.882 79.131 114.655 80.3043C115.455 81.451 116.468 82.0243 117.695 82.0243C120.415 82.0243 122.335 80.251 123.455 76.7043C121.295 75.371 120.215 73.3177 120.215 70.5443ZM145.489 85.1443C144.235 85.5977 142.982 85.8243 141.729 85.8243C140.475 85.8243 139.422 85.451 138.569 84.7043C137.715 83.9577 137.222 82.9443 137.089 81.6643C136.955 80.3843 136.835 78.531 136.729 76.1043C136.622 73.651 136.515 71.9177 136.409 70.9043C136.062 67.5177 134.995 65.1043 133.209 63.6643C134.462 62.5177 136.035 61.9443 137.929 61.9443C138.969 61.9443 139.875 62.2243 140.649 62.7843C141.422 63.3177 142.035 64.0377 142.489 64.9443C142.969 65.8243 143.355 66.971 143.649 68.3843C144.102 70.731 144.329 73.9043 144.329 77.9043C144.329 78.891 144.289 80.051 144.209 81.3843H146.529C149.275 73.971 150.649 68.9177 150.649 66.2243C150.649 65.3177 150.449 64.4643 150.049 63.6643C151.915 62.5177 153.542 61.9443 154.929 61.9443C157.515 61.9443 158.809 63.4377 158.809 66.4243C158.809 68.7977 157.715 72.971 155.529 78.9443C155.129 80.0377 154.902 80.6777 154.849 80.8643C151.462 90.5177 146.649 95.3443 140.409 95.3443C138.515 95.3443 136.955 94.931 135.729 94.1043C134.502 93.3043 133.889 92.2377 133.889 90.9043C133.889 89.5977 134.382 88.2243 135.369 86.7843C136.649 88.5977 138.249 89.5043 140.169 89.5043C141.262 89.5043 142.275 89.1443 143.209 88.4243C144.169 87.7043 144.929 86.611 145.489 85.1443ZM177.101 81.0243L176.701 80.8243C175.981 82.7443 174.941 84.251 173.581 85.3443C172.248 86.411 170.755 86.9443 169.101 86.9443C166.835 86.9443 165.021 86.091 163.661 84.3843C162.301 82.6777 161.621 80.3977 161.621 77.5443C161.621 73.1177 163.101 69.411 166.061 66.4243C169.048 63.4377 172.755 61.9443 177.181 61.9443C178.328 61.9443 179.381 62.051 180.341 62.2643C180.501 63.011 180.595 63.6643 180.621 64.2243C181.955 63.371 183.328 62.9443 184.741 62.9443C186.688 62.9443 187.661 63.9977 187.661 66.1043C187.661 66.851 187.235 69.1043 186.381 72.8643C185.555 76.6243 185.141 79.411 185.141 81.2243C185.141 83.0377 185.555 84.291 186.381 84.9843C184.888 86.291 183.328 86.9443 181.701 86.9443C180.101 86.9443 178.928 86.4643 178.181 85.5043C177.461 84.5443 177.101 83.051 177.101 81.0243ZM169.141 75.5843C169.141 76.891 169.408 77.9043 169.941 78.6243C170.501 79.3177 171.288 79.6643 172.301 79.6643C173.315 79.6643 174.315 79.291 175.301 78.5443C176.288 77.7977 177.115 76.771 177.781 75.4643C178.021 72.771 178.541 69.5843 179.341 65.9043C176.648 65.9043 174.275 66.8777 172.221 68.8243C170.168 70.771 169.141 73.0243 169.141 75.5843ZM199.034 74.7443C199.034 76.1043 199.408 77.211 200.154 78.0643C200.928 78.891 201.874 79.3043 202.994 79.3043C204.514 79.3043 205.874 78.5843 207.074 77.1443C207.528 74.771 208.114 71.0243 208.834 65.9043C205.848 65.9043 203.461 66.771 201.674 68.5043C199.914 70.2377 199.034 72.3177 199.034 74.7443ZM209.634 89.9043C208.381 91.5843 206.808 92.9043 204.914 93.8643C203.021 94.851 201.021 95.3443 198.914 95.3443C196.834 95.3443 195.154 94.9443 193.874 94.1443C192.621 93.371 191.994 92.3177 191.994 90.9843C191.994 89.651 192.541 88.251 193.634 86.7843C194.861 88.5977 196.701 89.5043 199.154 89.5043C200.754 89.5043 202.234 88.811 203.594 87.4243C204.981 86.0643 205.901 84.0643 206.354 81.4243L205.954 81.2243C204.061 83.9977 201.634 85.3843 198.674 85.3843C196.434 85.3843 194.674 84.5177 193.394 82.7843C192.114 81.051 191.474 78.7443 191.474 75.8643C191.474 73.091 192.234 70.5577 193.754 68.2643C195.488 65.6243 197.901 63.7977 200.994 62.7843C202.701 62.2243 204.328 61.9443 205.874 61.9443C207.421 61.9443 208.728 62.051 209.794 62.2643C209.954 62.9843 210.048 63.6377 210.074 64.2243C211.328 63.371 212.594 62.9443 213.874 62.9443C215.714 62.9443 216.634 63.891 216.634 65.7843C216.634 67.6777 216.514 69.6243 216.274 71.6243C216.034 73.5977 215.661 75.7177 215.154 77.9843C214.648 80.251 213.914 82.3977 212.954 84.4243C212.021 86.4243 210.914 88.251 209.634 89.9043ZM231.855 86.9443C228.202 86.9443 225.375 85.9977 223.375 84.1043C221.402 82.211 220.415 79.651 220.415 76.4243C220.415 72.131 221.882 68.651 224.815 65.9843C227.775 63.291 231.482 61.9443 235.935 61.9443C238.415 61.9443 240.295 62.5043 241.575 63.6243C242.855 64.7177 243.495 66.171 243.495 67.9843C243.495 70.4643 242.282 72.531 239.855 74.1843C237.455 75.811 233.735 76.6377 228.695 76.6643C228.775 78.371 229.162 79.7177 229.855 80.7043C230.548 81.6643 231.415 82.1443 232.455 82.1443C233.495 82.1443 234.388 81.7977 235.135 81.1043C235.908 80.411 236.295 79.2777 236.295 77.7043C240.188 77.7043 242.135 78.6243 242.135 80.4643C242.135 82.0377 241.175 83.5177 239.255 84.9043C237.335 86.2643 234.868 86.9443 231.855 86.9443ZM235.255 66.6243C233.895 66.6243 232.642 67.3043 231.495 68.6643C230.375 70.0243 229.562 71.6243 229.055 73.4643C231.722 73.251 233.722 72.651 235.055 71.6643C236.415 70.651 237.095 69.5843 237.095 68.4643C237.095 67.931 236.922 67.491 236.575 67.1443C236.255 66.7977 235.815 66.6243 235.255 66.6243ZM247.104 81.9843C247.104 80.9177 247.371 78.851 247.904 75.7843C248.464 72.7177 249.037 69.9177 249.624 67.3843L247.544 64.1843C250.877 62.691 253.211 61.9443 254.544 61.9443C255.904 61.9443 256.584 62.7977 256.584 64.5043C256.584 65.4377 256.144 67.3843 255.264 70.3443L255.664 70.5443C257.584 64.811 259.971 61.9443 262.824 61.9443C264.131 61.9443 265.131 62.3443 265.824 63.1443C266.517 63.9443 266.864 64.8377 266.864 65.8243C266.864 67.291 266.317 68.5443 265.224 69.5843C264.131 70.6243 262.491 71.1443 260.304 71.1443C256.997 71.1443 255.344 74.5443 255.344 81.3443C255.344 82.9977 255.624 84.211 256.184 84.9843C254.531 86.291 253.011 86.9443 251.624 86.9443C248.611 86.9443 247.104 85.291 247.104 81.9843Z" fill="white"/>
</svg>
